<?xml version="1.0" standalone="no"?>
<!DOCTYPE svg PUBLIC "-//W3C//DTD SVG 20010904//EN"
 "http://www.w3.org/TR/2001/REC-SVG-20010904/DTD/svg10.dtd">
<svg version="1.0" xmlns="http://www.w3.org/2000/svg"
 width="1648.000000pt" height="1648.000000pt" viewBox="0 0 1648.000000 1648.000000"
 preserveAspectRatio="xMidYMid meet">
<metadata>
Created by potrace 1.14, written by Peter Selinger 2001-2017
</metadata>
<g transform="translate(0.000000,1648.000000) scale(0.100000,-0.100000)"
fill="#000000" stroke="none">
<path d="M13150 12989 c-92 -18 -199 -44 -230 -56 -8 -4 -17 -7 -20 -8 -65
-16 -299 -115 -435 -183 -132 -66 -403 -218 -427 -240 -10 -8 -18 -11 -18 -6
0 5 -4 4 -8 -1 -4 -6 -36 -28 -72 -49 -36 -22 -111 -70 -168 -108 -57 -37
-108 -68 -112 -68 -5 0 -14 -8 -19 -17 -6 -10 -11 -14 -11 -10 0 5 -17 -4 -37
-20 -21 -16 -65 -46 -98 -68 -33 -22 -64 -43 -70 -48 -5 -4 -53 -40 -106 -80
-91 -68 -165 -127 -215 -172 -176 -158 -345 -324 -489 -481 -44 -48 -93 -102
-110 -120 -16 -17 -50 -56 -75 -84 -25 -29 -58 -68 -75 -86 -78 -85 -95 -105
-95 -109 0 -3 -15 -20 -32 -40 -36 -38 -36 -38 -123 -140 -68 -79 -113 -131
-135 -155 -8 -9 -33 -36 -54 -60 -53 -60 -191 -213 -241 -266 -22 -23 -83 -88
-135 -144 -128 -137 -460 -472 -537 -540 -131 -117 -342 -285 -380 -303 -13
-6 -23 -13 -23 -16 0 -4 -20 -17 -45 -31 -25 -14 -45 -28 -45 -32 0 -5 -7 -8
-15 -8 -8 0 -15 -3 -15 -7 0 -5 -10 -13 -23 -19 -48 -24 -112 -59 -117 -65 -9
-11 -240 -119 -254 -119 -8 0 -16 -3 -18 -7 -3 -7 -136 -58 -178 -68 -8 -2
-63 -17 -122 -34 -60 -16 -108 -28 -108 -26 0 2 -19 -2 -42 -9 -24 -7 -55 -12
-70 -11 -16 0 -28 -2 -28 -5 0 -3 -12 -6 -27 -7 -16 0 -57 -4 -93 -8 -120 -15
-457 -9 -580 11 -19 3 -46 7 -60 8 -14 2 -52 9 -85 15 -33 7 -72 15 -88 17
-65 12 -306 92 -317 105 -3 4 -16 10 -30 14 -14 4 -37 16 -52 26 -14 11 -29
19 -32 19 -4 0 -25 12 -49 27 -23 15 -53 34 -67 41 -31 17 -134 94 -138 105
-2 4 -7 7 -11 7 -19 0 -213 187 -306 295 -33 39 -63 72 -67 73 -5 2 -8 10 -8
17 0 7 -3 15 -7 17 -22 9 -273 379 -278 408 0 3 -19 37 -41 75 -43 74 -175
339 -175 352 -1 4 -4 13 -9 18 -7 9 -121 279 -150 355 -7 19 -19 49 -26 65 -6
17 -17 44 -22 60 -6 17 -29 82 -51 145 -23 63 -42 125 -43 137 -2 13 -5 23 -9
23 -4 0 -9 10 -12 23 -2 12 -24 83 -47 157 -23 74 -43 140 -45 145 -1 6 -5 17
-8 25 -6 15 -166 573 -172 600 -2 8 -4 17 -5 20 -1 3 -3 10 -4 15 -1 6 -5 17
-8 25 -3 8 -20 61 -38 118 -23 71 -38 102 -49 103 -59 5 -201 3 -223 -3 -17
-4 -28 -2 -28 3 0 6 -4 8 -8 5 -16 -10 -62 -14 -62 -6 0 5 -12 5 -27 1 -16 -4
-267 -7 -559 -6 l-532 0 18 -35 c10 -19 19 -39 20 -45 1 -5 8 -23 15 -40 14
-32 47 -106 50 -115 4 -11 20 -50 57 -135 22 -49 41 -97 42 -105 2 -8 11 -31
20 -50 35 -77 228 -556 229 -567 0 -7 4 -13 8 -13 3 0 9 -10 12 -22 8 -37 91
-232 102 -240 5 -4 7 -8 2 -8 -4 0 2 -17 13 -37 11 -21 20 -41 20 -45 0 -4 16
-42 35 -84 19 -41 35 -77 35 -79 0 -9 185 -399 233 -490 17 -33 45 -87 61
-120 17 -33 34 -61 39 -63 4 -2 7 -9 7 -15 0 -7 16 -38 34 -69 19 -31 46 -76
59 -100 77 -137 281 -449 299 -456 4 -2 8 -10 8 -18 0 -8 3 -14 8 -14 4 -1 23
-23 42 -51 19 -27 46 -63 60 -78 14 -16 43 -50 65 -77 22 -27 50 -59 62 -72
13 -12 23 -25 23 -27 0 -6 227 -235 233 -235 3 0 27 -21 53 -46 50 -47 249
-200 294 -225 14 -8 27 -17 30 -20 11 -13 181 -109 265 -150 104 -52 260 -116
260 -108 0 1 11 -4 25 -11 14 -8 30 -15 35 -16 6 -1 35 -9 65 -18 66 -21 185
-53 220 -60 84 -16 148 -28 170 -31 14 -2 25 -4 25 -5 0 -2 8 -3 95 -13 130
-16 230 -21 365 -20 137 1 188 4 314 19 94 11 107 13 126 17 11 2 38 8 60 12
92 17 110 21 185 40 36 9 85 23 110 32 25 8 52 16 60 18 8 2 16 4 18 5 1 2 5
3 10 5 4 1 21 5 37 10 87 23 532 220 555 245 3 3 34 20 70 39 36 19 84 47 108
63 23 16 42 25 42 21 0 -4 5 0 11 10 5 9 15 17 20 17 11 0 184 114 279 183
139 102 225 167 254 192 6 6 45 37 86 70 41 32 80 64 86 70 6 5 24 21 40 34
34 29 161 139 184 161 9 8 61 56 115 105 135 124 157 145 428 408 373 363 409
397 503 482 48 44 100 91 115 105 38 36 75 68 144 125 33 28 62 52 65 55 3 3
41 35 85 70 44 36 81 68 83 72 2 5 8 8 14 8 6 0 18 8 27 18 9 9 54 46 101 80
47 35 92 69 100 75 52 41 220 157 229 157 5 0 11 3 13 8 8 17 330 214 406 247
23 10 42 22 42 27 0 4 9 8 20 8 11 0 20 5 20 10 0 6 3 9 8 8 4 -1 41 14 82 34
159 76 286 125 442 173 97 29 121 35 158 39 14 2 36 6 49 11 12 4 33 8 44 10
12 1 36 5 52 8 27 5 82 11 193 23 20 2 107 7 192 10 85 3 156 7 157 7 2 2 11
66 18 127 3 25 7 61 10 80 8 65 17 145 20 185 2 22 5 40 5 40 1 0 3 16 5 35 6
63 15 146 20 169 2 12 5 42 6 67 2 24 5 44 8 44 3 0 6 15 6 32 0 36 23 238 31
276 4 22 2 23 -53 21 -32 -1 -101 -10 -153 -20z"/>
<path d="M5 12440 c-1 -3 8 -41 21 -85 13 -44 25 -90 26 -102 1 -13 5 -23 9
-23 3 0 6 -6 7 -12 0 -7 3 -20 5 -28 3 -8 8 -30 12 -47 4 -18 12 -33 17 -33 5
0 7 -4 4 -8 -3 -5 10 -56 28 -113 70 -218 78 -244 81 -254 1 -5 5 -18 9 -27 4
-9 9 -22 10 -30 2 -7 6 -20 9 -28 3 -8 20 -55 37 -105 56 -159 71 -200 77
-215 3 -8 7 -22 9 -30 2 -8 7 -23 12 -35 6 -11 20 -47 32 -80 12 -33 28 -71
35 -85 7 -14 13 -27 13 -30 1 -10 14 -45 23 -62 5 -10 9 -22 9 -28 0 -5 11
-33 24 -62 14 -30 33 -76 44 -103 11 -28 28 -68 38 -90 10 -22 18 -42 19 -45
4 -12 28 -68 41 -94 8 -16 14 -35 14 -43 0 -7 4 -13 9 -13 5 0 13 -10 16 -22
16 -53 316 -660 335 -678 5 -4 50 -81 145 -249 11 -20 42 -68 68 -108 26 -40
47 -76 47 -82 0 -5 3 -11 8 -13 4 -1 37 -48 74 -103 36 -55 87 -129 113 -165
25 -36 53 -76 63 -90 9 -14 21 -30 27 -36 5 -7 19 -24 30 -40 26 -36 147 -187
195 -244 21 -25 48 -56 59 -70 139 -164 390 -415 565 -565 33 -27 65 -56 72
-62 7 -7 17 -13 23 -13 6 0 11 -4 11 -8 0 -17 408 -312 431 -312 5 0 9 -4 9
-10 0 -5 5 -10 11 -10 6 0 31 -13 56 -30 24 -16 46 -30 48 -30 2 0 38 -20 79
-45 42 -25 83 -45 90 -45 8 0 16 -7 20 -15 3 -8 9 -14 13 -13 7 2 134 -56 236
-108 16 -8 35 -14 43 -14 8 0 14 -4 14 -10 0 -5 3 -9 8 -8 4 2 39 -10 77 -26
75 -31 279 -103 333 -117 17 -5 47 -13 65 -18 89 -25 225 -60 252 -65 28 -5
42 -7 105 -21 42 -10 132 -25 180 -30 25 -3 56 -8 70 -12 14 -3 45 -7 70 -9
25 -2 63 -6 85 -8 259 -27 723 -27 960 0 22 3 63 7 90 9 47 4 87 10 145 21 14
3 43 7 65 10 56 8 80 12 80 14 0 2 23 7 67 15 34 6 230 59 373 101 33 10 62
21 63 26 2 4 14 8 26 8 12 0 27 5 34 12 7 7 12 9 12 6 0 -17 383 151 600 262
52 27 115 59 140 72 25 13 51 29 58 36 7 6 18 12 23 12 5 0 28 12 52 27 23 15
44 27 47 28 3 0 19 10 37 23 17 12 35 22 41 22 5 0 15 7 22 15 7 9 15 14 17
12 4 -4 155 91 181 113 6 6 12 9 12 6 0 -3 56 33 125 80 69 46 129 84 134 84
6 0 14 6 18 13 4 7 26 24 48 37 22 13 42 27 45 30 3 4 28 21 55 40 88 59 412
292 547 392 9 7 26 20 38 28 64 44 145 106 148 112 2 5 8 8 13 8 8 0 84 53
119 83 8 7 26 20 40 30 14 9 48 32 75 52 28 20 87 61 133 92 45 31 82 60 82
65 0 4 5 8 11 8 6 0 47 25 91 55 44 30 81 55 83 55 1 0 39 25 84 55 45 30 83
55 86 55 3 0 29 16 59 35 30 19 60 35 66 35 5 0 10 5 10 10 0 6 4 10 8 10 4 0
53 25 107 55 176 97 446 226 465 221 3 0 17 6 30 15 14 9 54 26 90 38 36 12
74 26 85 31 24 11 245 78 280 84 13 3 28 7 32 9 5 3 24 8 43 11 19 3 64 12
100 20 36 8 68 12 73 9 4 -2 7 1 7 7 0 6 4 9 8 6 4 -2 55 2 112 11 160 23 580
22 700 -2 14 -3 45 -8 70 -11 66 -9 88 -13 165 -31 17 -3 37 -7 45 -9 57 -9
258 -68 363 -107 42 -15 67 -20 68 -13 0 6 2 20 4 31 1 11 5 45 9 75 3 30 8
73 11 95 10 76 14 110 20 160 3 28 8 73 11 100 3 28 7 66 9 85 2 19 7 58 10
85 12 95 13 110 20 180 4 39 9 81 11 95 3 14 7 45 9 69 2 24 7 59 10 78 l5 33
-48 1 c-95 3 -429 -1 -502 -6 -109 -6 -268 -21 -310 -29 -14 -3 -45 -8 -70
-11 -41 -6 -67 -11 -185 -36 -73 -15 -130 -28 -163 -38 -33 -10 -39 -12 -57
-16 -5 -1 -37 -10 -70 -20 -33 -10 -64 -18 -70 -20 -5 -1 -17 -4 -25 -8 -8 -3
-64 -22 -125 -42 -60 -21 -116 -42 -123 -48 -7 -5 -15 -7 -19 -4 -3 4 -11 3
-17 -2 -6 -5 -45 -23 -86 -39 -41 -17 -97 -41 -125 -53 -27 -13 -52 -23 -55
-24 -3 0 -27 -12 -55 -26 -27 -14 -54 -27 -60 -29 -31 -10 -115 -53 -120 -60
-3 -5 -19 -11 -35 -15 -17 -4 -30 -11 -30 -16 0 -5 -6 -9 -13 -9 -7 0 -24 -8
-37 -17 -14 -10 -31 -18 -38 -20 -8 -1 -31 -13 -53 -27 -21 -15 -39 -23 -39
-19 0 5 -4 3 -8 -3 -4 -6 -25 -21 -47 -33 -22 -11 -62 -34 -90 -51 -27 -17
-60 -36 -72 -42 -13 -6 -23 -15 -23 -20 0 -5 -4 -6 -10 -3 -6 3 -10 2 -10 -3
0 -5 -11 -14 -25 -20 -14 -7 -31 -17 -38 -22 -26 -22 -83 -60 -104 -69 -13 -6
-23 -16 -23 -22 0 -7 -3 -10 -6 -7 -5 5 -94 -56 -154 -105 -8 -7 -31 -23 -50
-37 -19 -13 -37 -27 -40 -30 -3 -3 -34 -28 -70 -55 -36 -28 -69 -55 -75 -61
-5 -6 -35 -30 -65 -54 -30 -24 -73 -60 -96 -80 -70 -61 -166 -144 -190 -165
-12 -11 -46 -40 -75 -65 -29 -25 -60 -52 -68 -60 -9 -9 -47 -43 -86 -75 -38
-33 -74 -65 -80 -71 -11 -11 -181 -157 -280 -239 -33 -27 -65 -54 -72 -60 -43
-37 -83 -66 -86 -63 -2 2 -14 -9 -28 -23 -22 -23 -135 -109 -177 -134 -10 -5
-19 -13 -22 -16 -11 -14 -220 -149 -229 -149 -6 0 -11 -4 -11 -8 0 -4 -29 -24
-65 -43 -36 -18 -65 -37 -65 -41 0 -5 -9 -8 -19 -8 -11 0 -21 -4 -23 -9 -3 -9
-226 -123 -328 -169 -53 -24 -221 -92 -235 -96 -5 -2 -17 -6 -25 -9 -97 -39
-382 -120 -495 -142 -55 -10 -110 -18 -127 -19 -10 0 -18 -3 -18 -6 0 -3 -10
-6 -22 -6 -32 -2 -138 -14 -168 -20 -137 -25 -638 -25 -810 1 -19 3 -53 7 -75
9 -22 3 -69 10 -105 16 -36 6 -78 13 -95 16 -16 3 -44 10 -61 15 -18 5 -36 9
-40 8 -5 -1 -11 0 -14 1 -3 1 -12 3 -20 5 -156 33 -441 128 -615 204 -47 21
-67 28 -79 29 -5 0 -12 4 -15 9 -3 4 -53 31 -111 60 -123 62 -229 120 -251
139 -8 8 -18 14 -22 14 -10 0 -222 142 -225 151 -2 5 -8 9 -13 9 -8 0 -172
123 -205 154 -7 6 -31 27 -55 46 -79 64 -122 104 -279 260 -184 184 -313 327
-420 469 -14 18 -30 38 -36 44 -46 51 -332 464 -364 527 -7 14 -16 27 -19 30
-6 5 -20 29 -48 80 -8 14 -23 39 -33 55 -10 17 -31 53 -45 80 -15 28 -33 57
-41 66 -8 8 -14 23 -14 32 0 9 -4 17 -9 17 -5 0 -14 12 -20 28 -5 15 -33 69
-60 120 -28 50 -47 92 -43 92 4 0 2 4 -3 8 -6 4 -30 48 -54 97 -24 50 -57 117
-73 150 -17 33 -32 68 -34 79 -2 11 -7 22 -11 25 -5 3 -9 11 -10 16 -1 6 -23
57 -48 115 -60 140 -65 151 -81 181 -7 14 -11 29 -7 32 3 4 1 12 -5 19 -8 11
-46 103 -92 228 -5 14 -15 39 -21 55 -7 17 -13 33 -13 37 -1 3 -4 10 -8 14 -5
4 -8 14 -8 22 0 8 -6 28 -14 45 -8 18 -19 50 -26 72 -6 22 -15 49 -20 60 -5
11 -18 49 -30 85 -12 36 -24 72 -27 80 -3 8 -7 21 -9 27 -1 7 -18 61 -37 120
-52 161 -69 216 -72 233 -2 8 -4 15 -5 15 -1 0 -3 9 -5 21 -3 11 -10 38 -17
60 l-13 39 -768 0 c-423 0 -770 -2 -772 -5z"/>
<path d="M10979 8426 c-2 -2 -65 -7 -139 -11 -158 -7 -224 -12 -300 -21 -30
-3 -66 -8 -80 -9 -97 -11 -139 -17 -165 -21 -16 -3 -39 -7 -50 -9 -11 -1 -33
-5 -50 -8 -16 -3 -46 -8 -65 -11 -19 -3 -45 -8 -57 -11 -13 -3 -33 -7 -45 -10
-48 -10 -74 -15 -93 -19 -21 -5 -146 -33 -179 -41 -10 -2 -60 -16 -110 -31
-50 -14 -95 -27 -101 -28 -16 -4 -98 -28 -115 -34 -8 -3 -19 -6 -25 -8 -5 -1
-67 -22 -137 -47 -70 -25 -129 -42 -132 -39 -3 3 -6 0 -6 -6 0 -7 -8 -12 -18
-12 -10 0 -22 -3 -26 -7 -4 -5 -11 -8 -14 -9 -4 0 -20 -6 -35 -12 -16 -7 -30
-12 -33 -12 -9 0 -198 -80 -226 -95 -14 -8 -33 -15 -41 -15 -8 0 -20 -7 -27
-15 -7 -9 -15 -13 -18 -11 -3 3 -17 -1 -31 -8 -14 -8 -114 -57 -221 -109 -107
-53 -217 -108 -245 -123 -27 -16 -56 -29 -62 -30 -7 -1 -20 -9 -28 -18 -9 -9
-27 -19 -41 -22 -13 -3 -24 -10 -24 -15 0 -5 -5 -9 -11 -9 -6 0 -74 -37 -152
-82 -78 -44 -162 -92 -187 -106 -25 -14 -56 -32 -70 -41 -43 -27 -63 -39 -130
-78 -36 -20 -83 -48 -105 -62 -46 -29 -50 -32 -160 -97 -44 -26 -98 -58 -120
-72 -22 -14 -42 -24 -44 -23 -2 2 -7 -1 -10 -6 -3 -5 -33 -24 -66 -43 -33 -19
-63 -38 -66 -43 -3 -5 -9 -8 -13 -7 -4 0 -33 -15 -65 -34 -32 -20 -62 -36 -67
-36 -4 0 -15 -6 -23 -14 -9 -7 -56 -35 -106 -61 -49 -26 -96 -52 -102 -57 -7
-6 -13 -7 -13 -2 0 5 -4 4 -8 -1 -6 -10 -142 -78 -167 -85 -5 -1 -19 -9 -30
-16 -11 -8 -27 -14 -36 -14 -9 0 -22 -7 -29 -15 -6 -8 -15 -14 -18 -13 -11 3
-85 -23 -99 -35 -7 -5 -13 -6 -13 -2 0 4 -6 3 -12 -2 -12 -9 -74 -30 -228 -78
-30 -10 -68 -19 -85 -22 -16 -2 -53 -11 -80 -19 -54 -15 -177 -41 -235 -49
-19 -3 -60 -10 -90 -15 -30 -5 -73 -12 -95 -15 -142 -17 -145 -17 -325 -30
-132 -10 -472 -12 -498 -3 -13 4 -22 4 -22 -3 0 -6 -5 -7 -11 -4 -9 6 -99 13
-211 18 -16 0 -28 3 -28 6 0 3 -25 6 -55 5 -30 0 -55 2 -55 5 0 3 -17 7 -38 7
-42 1 -144 15 -153 20 -4 2 -31 6 -60 10 -30 3 -62 10 -71 16 -10 5 -18 7 -18
4 0 -2 -26 2 -58 9 -33 8 -70 16 -83 19 -13 3 -42 10 -64 16 -22 6 -47 13 -55
15 -8 2 -16 4 -17 5 -3 3 -3 3 -53 14 -19 5 -41 13 -47 18 -7 6 -13 8 -13 5 0
-4 -100 33 -219 80 -13 6 -13 -20 5 -242 6 -73 14 -188 19 -275 2 -36 4 -65 5
-65 1 0 3 -29 5 -65 2 -36 7 -101 10 -145 3 -44 7 -102 9 -130 2 -27 5 -74 7
-102 1 -29 7 -53 13 -54 6 0 20 -3 31 -5 11 -3 38 -7 60 -10 22 -3 51 -7 65
-10 25 -5 59 -8 200 -21 95 -9 617 -8 690 1 30 4 75 8 100 11 25 2 45 4 45 5
0 1 18 3 40 5 22 2 54 6 70 9 33 7 110 18 138 19 9 1 17 5 17 10 0 4 3 6 8 3
6 -4 37 1 127 19 11 3 76 19 145 36 69 17 132 33 140 34 8 1 23 5 32 9 9 4 22
9 30 10 7 2 39 10 70 20 32 10 60 17 63 16 3 0 19 7 35 15 16 8 32 15 35 14 5
0 63 19 135 46 137 52 192 73 320 128 80 33 247 113 373 176 247 126 248 126
355 189 41 23 78 42 83 42 5 0 9 4 9 9 0 5 8 11 18 15 9 3 26 11 37 18 66 43
127 78 135 78 6 0 10 5 10 10 0 6 7 10 15 10 8 0 15 5 15 10 0 6 4 10 9 10 5
0 50 26 101 58 50 31 101 62 113 69 12 7 29 17 37 23 8 6 32 21 52 33 20 12
78 48 129 80 50 31 95 57 100 57 5 0 9 3 9 8 0 4 9 12 19 17 11 6 55 31 98 57
43 26 92 55 108 65 17 10 32 20 35 23 3 3 16 11 30 18 41 21 82 45 138 80 29
17 57 32 62 32 6 0 10 5 10 10 0 6 4 10 9 10 5 0 40 18 78 39 133 76 220 122
383 204 91 45 168 87 172 92 4 6 8 7 8 3 0 -4 26 6 58 21 31 16 80 38 107 50
28 12 58 26 67 31 10 6 25 10 33 10 8 0 15 5 15 10 0 6 3 9 8 8 4 0 16 2 27 7
11 4 47 19 80 32 33 14 98 38 144 54 46 17 95 35 110 41 14 6 31 12 36 13 6 2
76 23 157 49 80 25 157 47 170 50 20 4 61 13 183 42 51 12 59 14 83 16 12 1
22 6 22 11 0 4 4 6 9 3 5 -3 44 1 88 8 222 41 326 49 633 49 226 0 413 -8 430
-18 3 -2 33 -7 65 -10 33 -4 69 -9 80 -11 11 -3 35 -7 54 -10 18 -3 43 -8 55
-10 43 -9 112 -24 136 -30 14 -3 30 -7 35 -8 6 -1 16 -5 23 -9 6 -5 12 -6 12
-3 0 3 21 -2 48 -10 26 -8 56 -17 66 -19 10 -2 35 -10 55 -17 20 -7 38 -13 41
-13 3 0 30 -9 60 -20 30 -11 58 -20 63 -21 4 -1 9 -3 12 -4 3 -1 8 -3 13 -5 4
-1 21 -7 37 -14 17 -7 59 -24 95 -38 36 -14 70 -28 75 -32 6 -4 46 -22 90 -41
44 -19 83 -39 87 -44 4 -6 8 -8 8 -4 0 5 66 -27 148 -69 81 -42 157 -81 169
-87 13 -6 23 -14 23 -18 0 -5 4 -8 9 -8 24 0 416 -256 482 -314 16 -14 32 -26
35 -26 8 0 108 -82 112 -92 2 -5 7 -8 11 -8 8 0 69 -51 118 -97 13 -13 26 -23
29 -23 9 0 354 -349 401 -405 64 -76 82 -98 107 -125 12 -14 59 -75 104 -135
45 -61 85 -115 90 -120 16 -20 179 -271 198 -305 10 -19 21 -37 24 -40 10 -10
41 -65 47 -82 3 -10 9 -18 14 -18 5 0 9 -6 9 -13 0 -7 13 -34 30 -60 16 -26
27 -47 24 -47 -3 0 3 -12 13 -27 24 -36 57 -106 55 -115 -1 -5 1 -8 6 -8 4 0
13 -15 21 -32 7 -18 26 -60 41 -93 46 -97 80 -173 80 -178 0 -3 8 -22 17 -43
9 -22 17 -41 18 -44 1 -3 6 -16 12 -30 23 -53 55 -133 59 -149 2 -9 22 -68 45
-131 22 -63 41 -119 43 -125 1 -5 15 -50 30 -100 15 -49 30 -96 31 -105 2 -8
13 -46 25 -85 12 -38 23 -79 25 -90 2 -11 6 -29 9 -40 17 -63 39 -153 41 -170
2 -11 4 -21 5 -22 2 -2 4 -7 5 -13 1 -5 3 -11 5 -12 1 -2 3 -12 5 -23 3 -23
15 -85 20 -100 1 -5 6 -24 10 -41 l7 -32 707 0 c388 0 709 2 712 4 19 11 -244
794 -307 915 -7 15 -10 29 -7 33 4 3 0 6 -7 6 -7 0 -11 3 -8 6 6 6 -6 38 -48
132 -13 29 -24 55 -24 57 0 5 -19 49 -58 135 -9 19 -15 38 -14 43 1 4 -3 7 -8
7 -5 0 -9 3 -8 8 0 4 -7 25 -16 47 -36 83 -290 584 -337 665 -27 47 -54 94
-59 105 -11 21 -20 37 -61 100 -15 22 -28 45 -29 50 -1 6 -17 33 -36 61 -19
28 -34 56 -34 61 0 6 -7 14 -16 17 -8 3 -13 10 -10 15 4 5 3 11 -1 13 -10 4
-73 96 -73 106 -1 4 -14 23 -30 42 -17 19 -30 39 -30 45 0 6 -9 17 -20 25 -11
8 -20 18 -20 23 0 4 -5 13 -10 20 -6 7 -38 50 -73 97 -59 82 -80 109 -102 134
-6 6 -30 36 -55 66 -25 30 -58 71 -75 90 -51 60 -377 383 -439 435 -32 28 -69
60 -83 73 -13 12 -29 22 -34 22 -6 0 -8 4 -4 9 3 5 -3 12 -12 15 -10 3 -32 18
-48 33 -17 16 -51 44 -75 63 -25 19 -49 38 -55 42 -5 5 -28 22 -50 39 -22 16
-48 36 -57 44 -10 8 -18 11 -18 7 0 -4 -4 -2 -8 4 -10 15 -168 124 -180 124
-6 0 -12 4 -14 9 -5 13 -162 110 -348 214 -92 51 -279 142 -395 191 -166 71
-183 78 -235 96 -19 7 -44 16 -55 20 -53 21 -91 35 -102 36 -12 2 -106 31
-133 41 -8 3 -19 7 -25 8 -5 2 -37 11 -70 21 -33 10 -63 17 -67 16 -4 -1 -25
5 -47 13 -23 8 -41 12 -41 8 0 -3 -6 -1 -12 4 -7 5 -23 8 -35 7 -13 0 -23 2
-23 6 0 4 -24 11 -52 16 -60 9 -71 11 -78 14 -3 1 -16 3 -30 5 -14 2 -52 8
-85 14 -188 35 -382 56 -575 65 -58 3 -105 6 -105 6 0 7 -298 3 -302 -4 -3 -4
-9 -3 -12 3 -4 6 -9 9 -12 7z"/>
<path d="M10047 7264 c-1 -1 -58 -5 -127 -8 -135 -8 -149 -9 -255 -21 -101
-12 -110 -13 -110 -15 0 -1 -11 -3 -25 -5 -14 -1 -38 -5 -55 -9 -16 -3 -45 -9
-64 -12 -32 -5 -52 -9 -88 -18 -10 -2 -40 -10 -68 -16 -65 -15 -71 -17 -134
-34 -30 -8 -58 -13 -63 -10 -4 3 -8 1 -8 -4 0 -5 -15 -13 -32 -17 -18 -4 -39
-9 -45 -11 -7 -2 -19 -5 -25 -7 -7 -1 -19 -6 -26 -10 -7 -5 -22 -10 -35 -12
-12 -3 -76 -25 -142 -51 -66 -25 -126 -46 -132 -47 -7 0 -13 -5 -13 -10 0 -5
-6 -7 -14 -4 -8 3 -20 -1 -27 -9 -6 -8 -14 -13 -16 -10 -4 4 -56 -19 -241
-105 -46 -22 -87 -39 -93 -39 -5 0 -9 -4 -9 -10 0 -5 -7 -10 -15 -10 -8 0 -37
-13 -65 -30 -28 -16 -57 -30 -65 -30 -7 0 -15 -4 -17 -8 -1 -5 -32 -24 -68
-44 -36 -19 -85 -47 -110 -62 -25 -15 -57 -32 -72 -39 -16 -6 -28 -15 -28 -19
0 -4 -7 -8 -15 -8 -8 0 -15 -5 -15 -11 0 -5 -4 -8 -9 -4 -6 3 -14 -3 -20 -12
-6 -10 -11 -15 -11 -11 0 4 -33 -14 -72 -41 -40 -26 -88 -56 -105 -66 -18 -11
-33 -23 -33 -27 0 -4 -5 -8 -11 -8 -8 0 -129 -78 -174 -113 -21 -17 -113 -83
-135 -97 -12 -8 -32 -23 -44 -32 -11 -10 -46 -37 -77 -60 -87 -66 -107 -82
-215 -165 -55 -43 -112 -87 -128 -98 -15 -11 -51 -37 -79 -58 -29 -20 -56 -41
-62 -45 -5 -4 -53 -37 -105 -72 -52 -36 -97 -68 -100 -71 -3 -3 -21 -14 -40
-25 -19 -10 -43 -27 -54 -36 -11 -10 -23 -18 -28 -18 -4 0 -27 -13 -50 -29
-102 -67 -158 -101 -158 -94 0 5 -4 3 -8 -2 -9 -13 -38 -31 -117 -75 -33 -18
-75 -41 -92 -51 -18 -10 -33 -15 -33 -11 0 4 -4 3 -8 -3 -14 -20 -271 -149
-477 -240 -71 -31 -290 -117 -308 -121 -10 -2 -25 -8 -33 -15 -8 -6 -14 -9
-14 -6 0 3 -16 -1 -35 -9 -36 -15 -346 -110 -387 -118 -22 -5 -43 -10 -90 -22
-13 -3 -34 -7 -48 -8 -14 -2 -32 -6 -40 -9 -33 -13 -240 -48 -297 -50 -7 0
-13 -3 -13 -6 0 -3 -17 -6 -38 -7 -20 -1 -82 -5 -137 -9 -115 -10 -338 -10
-472 -1 l-92 6 4 -58 c3 -31 7 -102 10 -157 4 -96 10 -200 20 -368 2 -43 7
-82 10 -87 3 -5 1 -11 -5 -15 -6 -4 -7 -11 -3 -18 6 -10 8 -36 17 -240 2 -48
6 -90 8 -93 3 -2 4 -18 2 -35 -4 -33 -8 -32 91 -14 108 21 443 121 550 166 17
7 35 13 41 14 17 4 192 74 276 110 42 18 79 31 82 28 3 -4 6 -2 6 4 0 6 11 14
25 17 27 7 129 51 155 67 8 5 22 12 30 15 8 3 31 13 50 22 19 8 37 16 40 17 7
1 261 124 285 137 32 18 132 71 225 119 47 24 87 46 90 49 5 5 57 34 125 69
16 9 32 18 35 21 4 4 165 103 268 165 31 19 137 90 142 95 3 3 50 37 104 74
55 38 104 72 110 77 6 5 83 63 171 129 88 66 167 126 175 133 8 8 47 38 85 67
39 29 72 56 75 59 3 4 21 18 40 31 19 13 49 35 65 49 17 14 44 35 59 46 16 11
36 27 45 35 9 9 34 29 56 44 22 16 45 34 50 40 6 6 55 45 110 86 55 41 105 79
112 85 26 21 39 31 73 55 19 13 37 27 40 31 5 6 251 186 300 219 12 8 28 21
36 28 7 6 15 12 17 12 2 0 48 30 102 66 113 76 254 164 305 189 19 10 37 21
40 24 8 10 155 81 168 81 7 0 12 5 12 10 0 6 5 10 11 10 6 0 25 6 42 14 83 38
177 75 177 69 0 -3 7 0 15 7 8 7 15 10 15 7 0 -3 17 1 37 10 67 27 389 107
486 119 23 3 53 8 67 10 39 7 132 17 168 18 17 0 32 3 32 6 0 3 33 5 73 5 39
0 111 2 160 5 48 3 87 3 87 0 0 -3 53 -6 118 -7 108 -1 173 -6 262 -18 19 -2
58 -7 85 -11 67 -8 90 -12 90 -14 0 -1 14 -3 30 -5 17 -2 41 -7 55 -11 14 -3
36 -8 50 -10 14 -3 52 -12 85 -21 33 -9 67 -17 75 -18 8 -1 22 -5 30 -8 8 -3
38 -12 65 -21 147 -47 176 -57 202 -67 15 -6 37 -15 48 -19 308 -119 663 -331
930 -554 112 -94 328 -317 405 -418 8 -11 24 -32 36 -46 125 -161 264 -415
344 -632 49 -134 52 -142 56 -155 1 -5 14 -52 27 -103 14 -51 26 -95 26 -97 1
-3 1 -6 2 -7 3 -12 10 -46 23 -128 9 -52 18 -106 21 -120 11 -63 27 -271 29
-391 l2 -94 598 -1 598 -2 -8 57 c-10 79 -12 96 -14 99 -2 1 -4 11 -5 22 -1
11 -3 21 -5 23 -2 3 -10 36 -14 62 -2 11 -7 36 -11 55 -5 19 -9 44 -11 55 -1
11 -3 21 -4 23 -2 1 -4 7 -5 12 -1 6 -3 11 -5 13 -1 1 -3 11 -4 22 -2 11 -18
72 -35 135 -18 63 -34 122 -35 130 -7 30 -107 326 -120 355 -7 17 -22 53 -32
80 -10 28 -23 53 -28 57 -6 4 -8 8 -4 8 4 0 -2 21 -13 48 -32 75 -113 247
-119 252 -3 3 -25 45 -50 94 -41 81 -171 305 -192 331 -27 33 -108 156 -108
165 0 5 -4 10 -9 10 -4 0 -26 26 -49 58 -22 31 -51 69 -64 84 -13 14 -34 41
-48 58 -75 94 -335 363 -426 440 -37 31 -132 110 -158 130 -10 8 -26 22 -35
30 -9 8 -34 27 -56 42 -22 15 -65 45 -95 67 -65 47 -255 167 -320 202 -25 13
-46 27 -48 32 -2 4 -10 7 -17 7 -7 0 -41 16 -75 35 -34 19 -64 35 -66 35 -2 0
-36 15 -76 34 -86 40 -210 93 -238 101 -3 1 -22 9 -44 18 -21 9 -46 17 -55 17
-9 0 -21 4 -26 8 -9 8 -58 24 -200 66 -70 21 -175 47 -205 51 -14 2 -25 4 -25
5 0 3 -29 8 -140 25 -133 20 -156 23 -260 29 -44 3 -80 5 -80 6 0 1 -187 5
-188 4z"/>
</g>
</svg>
