<?xml version="1.0" encoding="UTF-8"?>
<svg viewBox="0 0 206.220315 119.390836" version="1.1"
    xmlns="http://www.w3.org/2000/svg">
    <g id="Site-#2" stroke="none" stroke-width="1" fill="none" fill-rule="evenodd">
        <g>
            <path d="M40.2355194,94.6226924 C51.8806839,96.6074772 65.191856,94.9747704 81.535891,85.7396869 C97.879926,76.5046034 121.804522,56.247644 149.840957,67.7717544 C177.877393,79.2958648 185.360478,103.943135 188.338748,118.099242 C188.338748,118.099242 206.220315,118.099242 206.220315,118.099242 C202.93971,106.355803 194.972661,87.358551 184.051128,76.4917054 C173.129595,65.6248598 156.483401,55.491654 132.577682,57.6992802 C108.671963,59.9069065 92.2011827,74.4883221 79.5070751,80.3849501 C66.8129675,86.281578 48.8306267,85.336875 39.2687435,81.0600951 C39.2687435,81.0600951 40.2355194,94.6226924 40.2355194,94.6226924 Z" fill="#04733F"></path>
            <path d="M19.3464199,7.08029933 C36.9150464,68.9542756 73.6783451,70.199535 91.4272067,63.9808536 C109.176068,57.7621723 116.042048,44.6091065 131.95357,35.8915635 C147.865092,27.1740204 157.041535,28.0162834 163.400735,28.0162834 C163.400735,28.0162834 161.80359,41.7485998 161.80359,41.7485998 C151.677005,37.9842659 140.592299,37.5011753 125.779526,46.2555383 C110.966753,55.0099014 94.0700026,72.4368348 73.5886971,74.7616482 C53.1073916,77.0864616 18.0211675,71.9248817 0,7.08029933 C0,7.08029933 19.3464199,7.08029933 19.3464199,7.08029933 Z" fill="#04733F"></path>
            <path d="M35.9050829,6.08029933 C43.9844902,24.1613767 51.2007193,51.8163075 73.9215544,57.8606549 C96.6423895,63.9050024 113.274088,47.1325635 126.509712,34.1129604 C133.592026,27.1462383 141.24741,21.1168769 147.86563,17.7326921 C154.48385,14.3485073 159.039958,13.5207773 165.541023,13.5207773 C165.541023,13.5207773 167.142673,0 167.142673,0 C160.931948,0 152.536417,4.75542294 143.492693,10.9307128 C134.44897,17.1060028 127.959332,26.5393952 120.711815,34.1129604 C113.464297,41.6865256 102.339069,55.6178709 82.4365353,51.3572333 C62.5340014,47.0965957 57.0370832,13.5207773 54.1078076,6.08029933 C54.1078076,6.08029933 35.9050829,6.40902374 35.9050829,6.08029933 Z" fill="#F0282E"></path>
            <path d="M41.8457287,119.390836 C47.9528397,118.579587 62.9414596,112.286901 72.8314269,105.58564 C82.7213942,98.8843794 94.0286628,88.2332098 103.15785,84.138989 C112.287038,80.0447682 128.028654,78.3469379 142.208549,87.5177921 C156.388445,96.6886463 158.618373,109.181542 158.618373,118.099242 C158.618373,118.099242 173.631888,118.099242 173.631888,118.099242 C169.05823,90.2164475 151.604221,77.4420688 136.507959,73.2776679 C121.411697,69.113267 103.931304,74.661289 86.3700522,88.5718995 C68.8088001,102.48251 52.1441834,106.978455 41.0627938,105.58564 C41.0627938,105.58564 41.8457287,119.390836 41.8457287,119.390836 Z" fill="#F0282E"></path>
        </g>
    </g>
</svg>